<?xml version="1.0" encoding="UTF-8"?>
<svg width="24px" height="24px" viewBox="0 0 24 24" version="1.1" xmlns="http://www.w3.org/2000/svg">
    <circle fill="#4F46E5" cx="12" cy="12" r="12"/>
    <path d="M8,13 C8.55228475,13 9,12.5522847 9,12 C9,11.4477153 8.55228475,11 8,11 C7.44771525,11 7,11.4477153 7,12 C7,12.5522847 7.44771525,13 8,13 Z" fill="#FFFFFF"/>
    <path d="M16,13 C16.5522847,13 17,12.5522847 17,12 C17,11.4477153 16.5522847,11 16,11 C15.4477153,11 15,11.4477153 15,12 C15,12.5522847 15.4477153,13 16,13 Z" fill="#FFFFFF"/>
    <path d="M15.5,16 C15.5,16 15,18 12,18 C9,18 8.5,16 8.5,16" stroke="#FFFFFF" stroke-width="1.5" stroke-linecap="round"/>
</svg>